# xmcd CD database file
#
# Track frame offsets:
#	150
#	22685
#	41340
#	58595
#	82507
#	103775
#	139647
#	156395
#	169480
#	193745
#
# Disc length: 2848 seconds
#
# Revision: 0
# Processed by: cddbd v1.4PL0 Copyright (c) Steve Scherf et al.
# Submitted via: CDex 1.50beta10
#
DISCID=760b1e0a
DTITLE=Various Artist - Your Music
DYEAR=1995
DGENRE=New Age
TTITLE0=From Visions: The Piano, Richard Stoltzman
TTITLE1=From Along the Amazon: Brushfire, Charlie Bisharat
TTITLE2=From Live at Red Rocks: In a Child's Eyes, John Tesh
TTITLE3=From An Ambient Journey: The White Spirit, Uman
TTITLE4=From Deep Breakfast: Celestial Soda Pop, Ray Lynch
TTITLE5=From Canticles of Ecstasy: O Vis Aeternitatis, Sequentia
TTITLE6=From Global House: Norwegian Mountains, Oystein Sevag
TTITLE7=From Forest: Walking in the Air, George Winston
TTITLE8=Frm Sax on the Beach: Can you feel the Love Tonight, John Tesh
TTITLE9=From Live at Red Rocks: Bastille Day, John Tesh
EXTD=YEAR: 1995
EXTT0=
EXTT1=
EXTT2=
EXTT3=
EXTT4=
EXTT5=
EXTT6=
EXTT7=
EXTT8=
EXTT9=
PLAYORDER=
